<?xml version="1.0" encoding="utf-8"?>
<!-- Generator: Adobe Illustrator 24.1.2, SVG Export Plug-In . SVG Version: 6.00 Build 0)  -->
<svg version="1.1" id="Layer_1" xmlns="http://www.w3.org/2000/svg" xmlns:xlink="http://www.w3.org/1999/xlink" x="0px" y="0px"
	 viewBox="0 0 338.8 141.5" style="enable-background:new 0 0 338.8 141.5;" xml:space="preserve">
<style type="text/css">
	.st0{fill:#F24AFF;}
</style>
<g>
	<path class="st0" d="M338.8,119.3h-80.3V88.9H308V0h30.8L338.8,119.3z"/>
	<path class="st0" d="M49.6,141.5v-30.4h19.3v30.4H49.6z"/>
	<path class="st0" d="M75.5,141.5v-30.4h19.3v30.4H75.5z"/>
	<path class="st0" d="M279,80.9h-24.5c-17.4,0-34.9,0-52.3,0.1c-1.6,0.1-3.2,0.7-4.3,1.8c-12,11.8-23.9,23.7-35.8,35.6
		c-1.6,1.7-2.6,1.8-4.3,0c-5.9-6-11.9-11.9-17.8-17.9c-4-4-7.8-8.3-11.8-12.3c-2.3-2.3-4.8-4.5-7.2-6.6c-0.5-0.4-1.2-0.7-1.8-0.7
		c-8,0-16,0-24.3,0V106H0V37.4h29.6v38H64V37.4h30.7v12.9c8.1,0,15.9,0,23.7-0.1c0.9,0,1.8-1,2.6-1.8c12-11.9,24-23.8,35.9-35.8
		c2.8-2.8,2.9-2.7,5.7,0.1c12,11.9,24,23.9,36,35.8c0.9,1,2.2,1.6,3.5,1.7c15,0.1,30,0.1,45.1,0.1c0.4,0,0.8-0.1,1.5-0.1V0.2H279
		L279,80.9z M159.6,76.1l10.8-10.8l-10.8-11.1l-11,11L159.6,76.1z"/>
	<path class="st0" d="M206.2,88.9H225v30.2h-18.8V88.9z"/>
	<path class="st0" d="M250.8,119.2H232V89h18.8V119.2z"/>
</g>
</svg>
